<svg xmlns="http://www.w3.org/2000/svg" version="1.1" xmlns:xlink="http://www.w3.org/1999/xlink" xmlns:svgjs="http://svgjs.com/svgjs" width="1540" height="900" preserveAspectRatio="none" viewBox="0 0 1540 900"><g mask="url(&quot;#SvgjsMask1076&quot;)" fill="none"><rect width="1540" height="900" x="0" y="0" fill="url(#SvgjsLinearGradient1077)"></rect><path d="M540.24 468.92 a15.4 15.4 0 1 0 30.8 0 a15.4 15.4 0 1 0 -30.8 0z" fill="rgba(10, 27, 212, 1)"></path><path d="M796.3 280.75L881.96 280.75L881.96 366.41L796.3 366.41z" stroke="#e73635"></path><path d="M1017.22 106.68 a1.08 1.08 0 1 0 2.16 0 a1.08 1.08 0 1 0 -2.16 0z" stroke="#d3b714"></path><path d="M400.49 731.88 a31.97 31.97 0 1 0 63.94 0 a31.97 31.97 0 1 0 -63.94 0z" fill="#037b0b"></path><path d="M1049.34 248.11L1098.95 248.11L1098.95 297.72L1049.34 297.72z" stroke="#e73635"></path><path d="M1411.11 623.61L1414.04 623.61L1414.04 626.54L1411.11 626.54z" stroke="#037b0b"></path><path d="M821.01 9.28 a3.24 3.24 0 1 0 6.48 0 a3.24 3.24 0 1 0 -6.48 0z" stroke="#d3b714"></path><path d="M1112.82 837.42L1175.6 837.42L1175.6 926.86L1112.82 926.86z" stroke="rgba(10, 27, 212, 1)"></path><path d="M462.09 787.42L469.67 787.42L469.67 795L462.09 795z" stroke="#037b0b"></path><path d="M113.77 2.82a7.2 7.2 0 1 0-8.31 11.77z" stroke="rgba(10, 27, 212, 1)"></path><path d="M1380.43 249.63L1411.73 249.63L1411.73 280.93L1380.43 280.93z" stroke="rgba(10, 27, 212, 1)"></path><path d="M387.47 523.39 a48.18 48.18 0 1 0 96.36 0 a48.18 48.18 0 1 0 -96.36 0z" stroke="#e73635"></path><path d="M1126.22 85.4a64.68 64.68 0 1 0-66.52 110.95z" stroke="#037b0b"></path><path d="M1051.37 221.47a14.37 14.37 0 1 0-14.59-24.77z" stroke="#037b0b"></path><path d="M990.83 808.2a23.73 23.73 0 1 0 19.84 43.12z" fill="#e73635"></path><path d="M1350.04 88.95L1362.42 88.95L1362.42 101.33L1350.04 101.33z" stroke="rgba(10, 27, 212, 1)"></path><path d="M127.53 631.51 a11.44 11.44 0 1 0 22.88 0 a11.44 11.44 0 1 0 -22.88 0z" fill="rgba(10, 27, 212, 1)"></path><path d="M635.76 126.59 a42.48 42.48 0 1 0 84.96 0 a42.48 42.48 0 1 0 -84.96 0z" fill="rgba(10, 27, 212, 1)"></path><path d="M680.06 346.17L717.07 346.17L717.07 383.18L680.06 383.18z" stroke="#037b0b"></path><path d="M-49.71 736.06 a67.1 67.1 0 1 0 134.2 0 a67.1 67.1 0 1 0 -134.2 0z" fill="#d3b714"></path><path d="M1166.95 500.51 a50.35 50.35 0 1 0 100.7 0 a50.35 50.35 0 1 0 -100.7 0z" fill="#e73635"></path><path d="M1400.63 892.96 a12.82 12.82 0 1 0 25.64 0 a12.82 12.82 0 1 0 -25.64 0z" fill="rgba(10, 27, 212, 1)"></path></g><defs><mask id="SvgjsMask1076"><rect width="1540" height="900" fill="#ffffff"></rect></mask><linearGradient x1="10.39%" y1="-17.78%" x2="89.61%" y2="117.78%" gradientUnits="userSpaceOnUse" id="SvgjsLinearGradient1077"><stop stop-color="rgba(14, 42, 71, 1)" offset="0.32"></stop><stop stop-color="rgba(227, 5, 180, 1)" offset="1"></stop></linearGradient></defs></svg>